HIERARCHY
ROOT Hips
{
	OFFSET -0.001795 -0.223333 0.028219
	CHANNELS 6 Xposition Yposition Zposition Zrotation Yrotation Xrotation 
	JOINT LeftUpLeg
	{
		OFFSET 0.069520 -0.091406 -0.006815
		CHANNELS 3 Zrotation Yrotation Xrotation
		JOINT LeftLeg
		{
			OFFSET 0.034277 -0.375199 -0.004496
			CHANNELS 3 Zrotation Yrotation Xrotation
			JOINT LeftFoot
			{
				OFFSET -0.013596 -0.397961 -0.043693
				CHANNELS 3 Zrotation Yrotation Xrotation
				JOINT LeftToe
				{
					OFFSET 0.026358 -0.055791 0.119288
					CHANNELS 3 Zrotation Yrotation Xrotation
					End Site
					{
						OFFSET 0.000000 0.000000 0.000000
					}
				}
			}
		}
	}
	JOINT RightUpLeg
	{
		OFFSET -0.067670 -0.090522 -0.004320
		CHANNELS 3 Zrotation Yrotation Xrotation
		JOINT RightLeg
		{
			OFFSET -0.038290 -0.382569 -0.008850
			CHANNELS 3 Zrotation Yrotation Xrotation
			JOINT RightFoot
			{
				OFFSET 0.015774 -0.398415 -0.042312
				CHANNELS 3 Zrotation Yrotation Xrotation
				JOINT RightToe
				{
					OFFSET -0.025372 -0.048144 0.123348
					CHANNELS 3 Zrotation Yrotation Xrotation
					End Site
					{
						OFFSET 0.000000 0.000000 0.000000
					}
				}
			}
		}
	}
	JOINT Spine
	{
		OFFSET -0.002533 0.108963 -0.026696
		CHANNELS 3 Zrotation Yrotation Xrotation
		JOINT Spine1
		{
			OFFSET 0.005487 0.135180 0.001092
			CHANNELS 3 Zrotation Yrotation Xrotation
			JOINT Spine2
			{
				OFFSET 0.001457 0.052922 0.025425
				CHANNELS 3 Zrotation Yrotation Xrotation
				JOINT Neck
				{
					OFFSET -0.002778 0.213870 -0.042857
					CHANNELS 3 Zrotation Yrotation Xrotation
					JOINT Head
					{
						OFFSET 0.005152 0.064970 0.051349
						CHANNELS 3 Zrotation Yrotation Xrotation
						End Site
						{
							OFFSET 0.000000 0.000000 0.000000
						}
					}
				}
				JOINT LeftShoulder
				{
					OFFSET 0.078845 0.121749 -0.034090
					CHANNELS 3 Zrotation Yrotation Xrotation
					JOINT LeftArm
					{
						OFFSET 0.090977 0.030469 -0.008868
						CHANNELS 3 Zrotation Yrotation Xrotation
						JOINT LeftForeArm
						{
							OFFSET 0.259612 -0.012772 -0.027456
							CHANNELS 3 Zrotation Yrotation Xrotation
							JOINT LeftHand
							{
								OFFSET 0.249234 0.008986 -0.001171
								CHANNELS 3 Zrotation Yrotation Xrotation
								End Site
								{
									OFFSET 0.000000 0.000000 0.000000
								}
							}
						}
					}
				}
				JOINT RightShoulder
				{
					OFFSET -0.081759 0.118833 -0.038615
					CHANNELS 3 Zrotation Yrotation Xrotation
					JOINT RightArm
					{
						OFFSET -0.096012 0.032551 -0.009143
						CHANNELS 3 Zrotation Yrotation Xrotation
						JOINT RightForeArm
						{
							OFFSET -0.253742 -0.013329 -0.021401
							CHANNELS 3 Zrotation Yrotation Xrotation
							JOINT RightHand
							{
								OFFSET -0.255298 0.007772 -0.005559
								CHANNELS 3 Zrotation Yrotation Xrotation
								End Site
								{
									OFFSET 0.000000 0.000000 0.000000
								}
							}
						}
					}
				}
			}
		}
	}
}
MOTION
Frames: 15
Frame Time: 0.050000
0.000000 0.954456 0.000000 -2.757509 -15.165252 -3.609216 -5.371352 0.135528 1.398107 2.077125 -0.346589 1.519222 -0.447719 0.486673 5.318419 0.000000 0.000000 0.000000 -0.567642 1.935267 -17.270808 9.521505 0.569205 48.105852 -4.786334 -13.642252 5.936950 0.000000 0.000000 0.000000 1.190503 -0.065091 1.282901 -2.148842 0.923906 -2.528950 2.671719 -4.123901 11.169994 2.169616 -1.519310 -19.067595 0.000000 0.000000 0.000000 -27.920085 -0.059632 2.284314 -46.573618 -8.896095 -4.227172 2.401457 -39.056884 2.236293 0.000000 0.000000 0.000000 21.282165 2.261961 -4.463187 52.457468 -9.738695 -9.003303 11.077440 32.540867 3.029051 0.000000 0.000000 0.000000 
-0.006427 0.954324 0.026725 -3.642970 -12.681068 -3.322282 -3.260885 0.427721 3.524388 1.063277 -0.170679 0.811860 -3.090739 -4.432056 5.475281 0.000000 0.000000 0.000000 -1.348995 2.362160 -21.462580 9.206916 -0.281179 42.093338 -4.105977 -12.818282 8.037414 0.000000 0.000000 0.000000 0.701723 0.014927 -0.303241 -0.697117 0.314284 -0.604747 1.485637 -4.344223 10.883597 4.698170 -2.722327 -20.141767 0.000000 0.000000 0.000000 -26.254846 -0.056398 1.728790 -49.485211 -8.533339 -4.256664 3.828704 -41.237920 1.955379 0.000000 0.000000 0.000000 21.465231 1.616807 -4.449374 53.154593 -9.127180 -8.911373 12.147532 32.830421 3.450295 0.000000 0.000000 0.000000 
-0.013196 0.954146 0.052488 -3.746112 -9.740128 -3.269843 -3.402757 0.645611 5.085724 2.251876 -0.377775 1.883763 -2.932491 -5.124230 2.725742 0.000000 0.000000 0.000000 0.575824 2.570548 -21.413599 4.114802 0.764211 31.195029 -2.373328 -9.053518 7.383065 0.000000 0.000000 0.000000 0.616628 0.011741 -0.236348 -1.157295 0.524096 -1.853375 2.221675 -4.329507 12.045259 4.181414 -2.182793 -21.763433 0.000000 0.000000 0.000000 -26.483584 -0.899152 1.817866 -50.363109 -7.278231 -4.781561 3.711991 -43.779186 2.043553 0.000000 0.000000 0.000000 19.626593 1.601494 -3.513461 55.593313 -9.212774 -9.906571 12.524203 36.071653 4.138236 0.000000 0.000000 0.000000 
-0.020131 0.953758 0.077175 -3.859986 -6.585944 -2.837321 -2.263324 0.738482 6.246496 1.955174 -0.319623 1.690480 -4.897286 -9.753240 1.563685 0.000000 0.000000 0.000000 0.164354 2.443770 -21.683238 2.939033 0.343203 20.973118 0.246036 -3.813410 8.328193 0.000000 0.000000 0.000000 -0.014255 0.046403 -1.089206 -0.013650 0.022912 -2.809817 0.991874 -4.439434 12.630780 5.817939 -2.770795 -22.982090 0.000000 0.000000 0.000000 -25.473864 -1.222431 1.400268 -51.530787 -6.426915 -5.017356 2.316477 -43.542814 2.387939 0.000000 0.000000 0.000000 21.534638 1.738317 -3.320382 53.907960 -8.137168 -9.035875 12.628269 38.910269 4.760351 0.000000 0.000000 0.000000 
-0.026862 0.952091 0.101363 -3.754128 -5.159273 -2.060186 -2.084755 0.712161 6.135610 2.797730 -0.505107 3.107020 -4.677521 -10.596331 -0.564655 0.000000 0.000000 0.000000 1.126530 2.500043 -21.241734 1.558196 0.269278 12.355936 4.466673 3.618287 11.003208 0.000000 0.000000 0.000000 -0.234267 0.074158 -1.792475 -0.185562 0.110860 -2.483116 0.971931 -3.611111 12.047444 6.265035 -2.907223 -21.997279 0.000000 0.000000 0.000000 -24.367921 -1.900004 1.227348 -53.580791 -4.128868 -5.880844 2.261373 -42.005427 2.079408 0.000000 0.000000 0.000000 22.320688 2.774256 -2.381759 52.689781 -5.502923 -7.657066 10.815586 44.100033 4.995611 0.000000 0.000000 0.000000 
-0.033594 0.949637 0.125215 -3.193873 -2.369409 -1.874472 -1.774122 0.682865 6.161744 3.132635 -0.679013 5.334080 -4.778179 -12.169038 -2.422956 0.000000 0.000000 0.000000 0.822732 2.319438 -20.878653 1.334219 0.169016 9.843424 6.468662 6.583135 13.352871 0.000000 0.000000 0.000000 -0.515713 0.088149 -2.307047 -0.590092 0.317100 -2.366330 0.567241 -3.434366 12.321374 6.661099 -2.863482 -22.450230 0.000000 0.000000 0.000000 -24.873855 -2.112200 0.737693 -52.751901 -3.284346 -6.037978 0.863106 -40.778408 2.231248 0.000000 0.000000 0.000000 22.558173 5.412223 -0.312876 51.813929 -0.277608 -5.473298 2.509727 51.164159 2.436710 0.000000 0.000000 0.000000 
-0.040501 0.948506 0.148355 -2.558700 0.415652 -1.889388 -1.268867 0.654041 6.355213 2.815397 -0.717988 6.791342 -4.936159 -12.591620 -2.409330 0.000000 0.000000 0.000000 0.733189 2.103737 -19.818066 0.997133 0.202522 10.237239 6.695612 7.512678 13.167053 0.000000 0.000000 0.000000 -0.763177 0.088841 -2.569017 -0.825524 0.427521 -1.388475 0.517076 -2.081553 11.303705 7.671186 -3.097069 -21.994468 0.000000 0.000000 0.000000 -24.445500 -3.403873 0.510947 -52.299508 -2.406636 -6.020181 0.012708 -38.118236 1.958648 0.000000 0.000000 0.000000 20.941533 7.012818 1.623068 51.019289 7.433279 -2.396952 -6.915157 54.906723 -1.487243 0.000000 0.000000 0.000000 
-0.047329 0.950169 0.170982 -2.589662 2.663024 -2.068830 0.152554 0.557904 6.571178 2.228756 -0.745959 8.770375 -4.565640 -12.806530 -3.646399 0.000000 0.000000 0.000000 0.814557 1.898946 -18.265173 0.896364 0.197975 10.762662 6.925441 8.040160 13.548129 0.000000 0.000000 0.000000 -0.097489 0.106880 -2.752268 -1.565368 0.775460 -0.916976 0.514464 -0.426404 10.645224 7.929278 -2.903272 -21.714994 0.000000 0.000000 0.000000 -23.758847 -4.431016 0.159040 -51.852755 -1.562321 -6.021719 -1.064079 -36.665787 1.891546 0.000000 0.000000 0.000000 19.670398 9.861089 4.081863 46.925171 17.007549 1.197159 -19.748746 54.243037 -7.255717 0.000000 0.000000 0.000000 
-0.053655 0.954354 0.192310 -2.568985 4.802291 -1.687461 1.448155 0.389441 5.858148 1.837643 -0.795723 10.461099 -4.759522 -11.924206 -2.013260 0.000000 0.000000 0.000000 0.650693 1.684975 -16.762612 1.783002 -0.043103 9.868484 5.729991 6.344163 12.991002 0.000000 0.000000 0.000000 0.442840 0.129146 -3.076888 -1.793698 0.907589 -1.754683 0.230385 1.311074 10.079386 8.993237 -3.203688 -21.237171 0.000000 0.000000 0.000000 -23.313000 -5.290493 -0.312601 -51.064849 0.341439 -6.402006 -1.045669 -35.725357 1.512797 0.000000 0.000000 0.000000 16.506508 11.913632 5.778595 41.154429 26.970613 4.119300 -27.027289 48.815469 -9.165685 0.000000 0.000000 0.000000 
-0.059059 0.959297 0.211956 -2.163333 7.247959 -0.638771 2.240147 0.245820 4.952261 1.358761 -0.820623 11.850984 -5.590949 -11.870787 0.263039 0.000000 0.000000 0.000000 0.437070 1.475122 -15.222885 1.792658 -0.104227 7.995503 4.920224 5.310384 12.642409 0.000000 0.000000 0.000000 0.955891 0.164773 -3.827309 -2.478238 1.239248 -2.234064 -0.521624 3.392056 9.394661 9.703506 -3.259744 -20.655432 0.000000 0.000000 0.000000 -21.639479 -6.348944 -0.687988 -50.700171 1.706905 -6.588097 -0.713962 -34.510969 0.991354 0.000000 0.000000 0.000000 13.851528 13.545111 7.097378 33.388057 34.770234 5.090860 -30.690261 41.061070 -8.476893 0.000000 0.000000 0.000000 
-0.063713 0.963301 0.229803 -1.841539 9.726094 0.073972 3.018641 0.074558 3.275483 1.084026 -0.921570 13.480393 -5.633655 -11.062714 1.278028 0.000000 0.000000 0.000000 -0.056867 1.232629 -13.408786 2.960925 -0.366488 5.920755 3.290540 2.676846 12.269991 0.000000 0.000000 0.000000 1.191844 0.171041 -4.067632 -2.972313 1.492575 -3.262160 -0.975295 5.035837 9.178671 10.888380 -3.515666 -20.919327 0.000000 0.000000 0.000000 -20.514014 -7.708024 -0.769706 -49.806685 2.642603 -6.571977 -0.316414 -33.446283 0.538168 0.000000 0.000000 0.000000 10.094297 14.844092 7.651455 26.253131 40.722467 5.000728 -32.230011 31.866874 -6.536613 0.000000 0.000000 0.000000 
-0.067620 0.965928 0.245468 -1.513886 12.066451 0.786504 3.725957 -0.052068 2.106493 0.974262 -0.940608 13.464229 -6.405195 -10.787230 3.427958 0.000000 0.000000 0.000000 -0.244540 1.066531 -11.853810 2.983978 -0.394579 4.070480 2.184460 0.916196 12.188681 0.000000 0.000000 0.000000 1.536853 0.180715 -4.392176 -3.566405 1.767381 -3.595906 -1.778619 6.971334 8.732053 11.510481 -3.432305 -21.027231 0.000000 0.000000 0.000000 -19.546935 -8.063179 -1.428542 -48.338583 2.675371 -6.076484 0.504964 -32.001449 -0.025810 0.000000 0.000000 0.000000 7.100815 15.889972 7.971175 17.819092 43.700638 3.380504 -31.331687 23.690982 -4.355298 0.000000 0.000000 0.000000 
-0.070638 0.966621 0.258907 -1.357147 14.383348 1.478164 4.324037 -0.156552 1.149018 1.613449 -1.093524 13.234227 -6.682612 -10.279138 4.542155 0.000000 0.000000 0.000000 -0.198224 0.943254 -10.409730 3.273019 -0.464735 2.741286 0.866698 -1.138077 11.552082 0.000000 0.000000 0.000000 1.873827 0.173549 -4.336091 -4.081363 2.009056 -4.398271 -2.276834 8.459725 8.556131 13.061084 -3.939059 -21.296814 0.000000 0.000000 0.000000 -18.656810 -9.348073 -1.438543 -47.648425 2.722219 -5.777124 0.085211 -31.197356 -0.151203 0.000000 0.000000 0.000000 3.499272 16.618773 7.681953 11.359192 45.945239 2.076937 -30.177707 14.876036 -2.169201 0.000000 0.000000 0.000000 
-0.072505 0.966754 0.270371 -1.217377 16.836896 2.009296 5.073172 -0.275301 -0.029083 1.359104 -1.094930 13.363797 -7.172141 -9.308782 6.641100 0.000000 0.000000 0.000000 -0.249460 0.845308 -9.388728 3.353751 -0.502592 2.188940 0.149186 -2.151830 11.264209 0.000000 0.000000 0.000000 1.995749 0.163760 -4.385263 -4.365943 2.137281 -4.475818 -2.983565 9.425717 8.075681 13.738602 -4.000653 -21.469021 0.000000 0.000000 0.000000 -18.321490 -9.462998 -1.985653 -46.527646 2.480095 -5.312696 -0.371774 -30.643247 -0.217042 0.000000 0.000000 0.000000 2.097754 17.105174 7.719526 4.232123 45.008633 -0.003546 -27.534480 9.867608 -0.960664 0.000000 0.000000 0.000000 
-0.073015 0.966025 0.279861 -0.937599 18.667377 2.545620 5.198410 -0.323628 -0.542629 1.949378 -1.132375 12.332937 -7.224204 -9.512978 6.341044 0.000000 0.000000 0.000000 -0.336061 0.774064 -8.662392 3.253255 -0.503065 1.980350 -0.770057 -3.627057 10.522765 0.000000 0.000000 0.000000 1.860609 0.154223 -4.510270 -4.489944 2.201405 -4.884872 -3.302283 10.426016 8.132693 14.739499 -4.290573 -21.732563 0.000000 0.000000 0.000000 -17.917648 -9.702135 -2.355179 -46.136633 2.453244 -5.106761 -1.423394 -30.207064 -0.098789 0.000000 0.000000 0.000000 -0.097793 17.213261 7.245696 1.218256 43.660174 -0.632459 -25.923929 5.838776 -0.074566 0.000000 0.000000 0.000000 
